<?xml version="1.0" encoding="UTF-8" standalone="no"?>
<!-- Created with Inkscape (http://www.inkscape.org/) -->

<svg
   xmlns:dc="http://purl.org/dc/elements/1.1/"
   xmlns:cc="http://creativecommons.org/ns#"
   xmlns:rdf="http://www.w3.org/1999/02/22-rdf-syntax-ns#"
   xmlns:svg="http://www.w3.org/2000/svg"
   xmlns="http://www.w3.org/2000/svg"
   xmlns:sodipodi="http://sodipodi.sourceforge.net/DTD/sodipodi-0.dtd"
   xmlns:inkscape="http://www.inkscape.org/namespaces/inkscape"
   width="384"
   height="384"
   viewBox="0 0 384 384"
   version="1.1"
   id="svg8"
   inkscape:version="0.92.3 (2405546, 2018-03-11)"
   sodipodi:docname="add.svg">
  <defs
     id="defs2" />
  <sodipodi:namedview
     id="base"
     pagecolor="#ffffff"
     bordercolor="#666666"
     borderopacity="1.0"
     inkscape:pageopacity="0.0"
     inkscape:pageshadow="2"
     inkscape:zoom="1.9038171"
     inkscape:cx="200.3857"
     inkscape:cy="171.58778"
     inkscape:document-units="px"
     inkscape:current-layer="svg8"
     showgrid="true"
     units="px"
     inkscape:showpageshadow="false"
     objecttolerance="10000"
     guidetolerance="10000"
     inkscape:window-width="1920"
     inkscape:window-height="1027"
     inkscape:window-x="-8"
     inkscape:window-y="-8"
     inkscape:window-maximized="1"
     showguides="true">
    <inkscape:grid
       type="xygrid"
       id="grid815"
       empspacing="24"
       enabled="true" />
  </sodipodi:namedview>
  <metadata
     id="metadata5">
    <rdf:RDF>
      <cc:Work
         rdf:about="">
        <dc:format>image/svg+xml</dc:format>
        <dc:type
           rdf:resource="http://purl.org/dc/dcmitype/StillImage" />
        <dc:title></dc:title>
      </cc:Work>
    </rdf:RDF>
  </metadata>
  <path
     style="opacity:1;fill:#000000;fill-opacity:1;stroke:none;stroke-width:1.40338516;stroke-linecap:round;stroke-linejoin:round;stroke-miterlimit:4;stroke-dasharray:none;stroke-opacity:1"
     d="M 181.1701,383.6909 C 133.62207,380.96491 89.620036,361.12039 55.752248,327.12856 28.257166,299.53279 9.8728649,264.28187 2.9127084,225.8116 -0.97580544,204.31895 -0.97069496,179.74824 2.9268284,157.92436 15.080324,89.871792 63.697456,33.025802 129.15427,10.331858 149.46327,3.2907083 169.49851,1.7027676e-6 192.05908,1.7027676e-6 c 29.60938,0 55.80437,5.8248284972324 82.36299,18.3145852972324 56.95458,26.784093 98.61137,82.885293 107.57198,144.872343 2.6746,18.50214 2.6746,38.85996 0,57.36209 -6.80185,47.05333 -32.51538,91.45544 -70.46915,121.68611 -36.73138,29.25701 -83.53074,44.14026 -130.3548,41.45577 z m 30.62452,-24.47762 c 47.98578,-5.82897 89.74776,-30.76038 118.15009,-70.53422 21.36801,-29.92317 32.56715,-69.10613 30.28974,-105.97609 -1.52534,-24.69468 -7.09782,-45.43569 -17.96839,-66.87923 C 325.77572,83.294551 300.03653,57.653167 267.58043,41.421918 248.99514,32.127445 231.84971,26.974973 211.05384,24.434787 202.54718,23.395709 183.40298,23.272572 174.95494,24.202596 142.0345,27.826726 112.26985,40.041504 86.539697,60.486322 79.901807,65.760697 65.631045,80.048925 60.439171,86.618793 49.760324,100.13195 41.662276,114.05848 35.500703,129.50645 19.660874,169.2192 19.572979,213.96153 35.256694,253.71839 c 6.021845,15.26485 14.487993,29.88957 25.003441,43.19181 5.563661,7.03813 19.710589,21.18275 26.805843,26.80147 26.543012,21.01935 58.767342,33.64064 92.625492,36.2786 7.90276,0.61571 23.80673,0.23079 32.10315,-0.77699 z"
     id="path2541"
     inkscape:connector-curvature="0" />
  <rect
     style="opacity:1;fill:#000000;fill-opacity:1;stroke:none;stroke-width:2.66666675;stroke-linecap:round;stroke-linejoin:round;stroke-miterlimit:4;stroke-dasharray:none;stroke-opacity:1"
     id="rect2543"
     width="216"
     height="48"
     x="84"
     y="168" />
  <rect
     style="opacity:1;fill:#000000;fill-opacity:1;stroke:none;stroke-width:2.66666675;stroke-linecap:round;stroke-linejoin:round;stroke-miterlimit:4;stroke-dasharray:none;stroke-opacity:1"
     id="rect2543-5"
     width="216"
     height="48"
     x="84"
     y="-216"
     transform="rotate(90)" />
</svg>
