<?xml version="1.0" encoding="UTF-8" standalone="no"?>
<svg
   xmlns:dc="http://purl.org/dc/elements/1.1/"
   xmlns:cc="http://creativecommons.org/ns#"
   xmlns:rdf="http://www.w3.org/1999/02/22-rdf-syntax-ns#"
   xmlns:svg="http://www.w3.org/2000/svg"
   xmlns="http://www.w3.org/2000/svg"
   shape-rendering="crispEdges"
   height="20"
   width="20"
   id="svg6"
   enable-background="new 0 0 129 129"
   viewBox="0 0 20 20"
   version="1.1">
  <metadata
     id="metadata12">
    <rdf:RDF>
      <cc:Work
         rdf:about="">
        <dc:format>image/svg+xml</dc:format>
        <dc:type
           rdf:resource="http://purl.org/dc/dcmitype/StillImage" />
        <dc:title></dc:title>
      </cc:Work>
    </rdf:RDF>
  </metadata>
  <defs
     id="defs10" />
  <path
     style="stroke-width:0.11950561"
     d="m 15.866464,14.256559 c -0.172693,0.211709 -0.453321,0.211709 -0.626015,0 L 9.7358359,7.4950939 4.2204292,14.256559 c -0.1726935,0.211709 -0.4533209,0.211709 -0.6260148,0 -0.1726936,-0.21171 -0.1726936,-0.555737 0,-0.767446 l 5.817621,-7.1319561 c 0.086347,-0.105855 0.1942805,-0.158782 0.313008,-0.158782 0.1079333,0 0.2266599,0.05292 0.3130076,0.158782 l 5.81762,7.1319561 c 0.183487,0.211709 0.183487,0.555736 0.01079,0.767446 z"
     id="path2" />
  <path
     transform="scale(1,-1)"
     d="m 10.546678,-12.898198 a 0.80897808,0.80897808 0 0 1 -0.8039281,0.808962 0.80897808,0.80897808 0 0 1 -0.8139654,-0.798862 0.80897808,0.80897808 0 0 1 0.7937647,-0.818936 0.80897808,0.80897808 0 0 1 0.8238758,0.788636 l -0.8087255,0.0202 z"
     id="path3761"
     style="fill:#000000;fill-opacity:1;stroke:none;stroke-width:3.77952766;stroke-miterlimit:4;stroke-dasharray:none;stroke-opacity:1" />
</svg>
