<?xml version="1.0" encoding="UTF-8" standalone="no"?>
<!-- Created with Inkscape (http://www.inkscape.org/) -->

<svg
   xmlns:dc="http://purl.org/dc/elements/1.1/"
   xmlns:cc="http://creativecommons.org/ns#"
   xmlns:rdf="http://www.w3.org/1999/02/22-rdf-syntax-ns#"
   xmlns:svg="http://www.w3.org/2000/svg"
   xmlns="http://www.w3.org/2000/svg"
   xmlns:sodipodi="http://sodipodi.sourceforge.net/DTD/sodipodi-0.dtd"
   xmlns:inkscape="http://www.inkscape.org/namespaces/inkscape"
   width="384"
   height="384"
   viewBox="0 0 384 384"
   version="1.1"
   id="svg8"
   inkscape:version="0.92.3 (2405546, 2018-03-11)"
   sodipodi:docname="delete.svg">
  <defs
     id="defs2" />
  <sodipodi:namedview
     id="base"
     pagecolor="#ffffff"
     bordercolor="#666666"
     borderopacity="1.0"
     inkscape:pageopacity="0.0"
     inkscape:pageshadow="2"
     inkscape:zoom="0.95190855"
     inkscape:cx="322.08131"
     inkscape:cy="220.40705"
     inkscape:document-units="px"
     inkscape:current-layer="svg8"
     showgrid="true"
     units="px"
     inkscape:showpageshadow="false"
     objecttolerance="10000"
     guidetolerance="10000"
     inkscape:window-width="1920"
     inkscape:window-height="1027"
     inkscape:window-x="-8"
     inkscape:window-y="-8"
     inkscape:window-maximized="1"
     showguides="true">
    <inkscape:grid
       type="xygrid"
       id="grid815"
       empspacing="24"
       enabled="true" />
  </sodipodi:namedview>
  <metadata
     id="metadata5">
    <rdf:RDF>
      <cc:Work
         rdf:about="">
        <dc:format>image/svg+xml</dc:format>
        <dc:type
           rdf:resource="http://purl.org/dc/dcmitype/StillImage" />
        <dc:title></dc:title>
      </cc:Work>
    </rdf:RDF>
  </metadata>
  <path
     id="rect2543"
     style="opacity:1;fill:#000000;fill-opacity:1;stroke:none;stroke-width:2.66666675;stroke-linecap:round;stroke-linejoin:round;stroke-miterlimit:4;stroke-dasharray:none;stroke-opacity:1"
     d="m 84,168 c 72,0 144,0 216,0 0,16 0,32 0,48 -72,0 -144,0 -216,0 0,-16 0,-32 0,-48 z m 97.1701,215.6909 C 102.37044,380.28541 29.720953,322.92939 8.0174375,247.08235 -14.410351,175.50717 10.46888,92.467032 68.41857,44.909602 c 61.64281,-53.6257288 158.31832,-59.860074 226.6104,-15.222505 60.87431,38.2429 96.9495,112.269713 87.84268,183.843883 -7.7126,78.20612 -68.78415,147.31162 -145.32033,164.9477 -18.39812,4.51122 -37.46685,6.29987 -56.38122,5.21222 z m 30.62452,-24.47762 C 282.61802,351.83842 344.63168,294.74366 357.28555,224.54719 372.46818,153.63553 335.38185,75.696214 270.60343,42.971089 205.9305,7.2741465 118.58175,21.826901 69.228901,76.853871 16.255552,130.76896 8.6075082,221.643 51.014338,284.07273 c 34.098878,52.72826 98.324032,83.13412 160.780282,75.14055 z" />
</svg>
