<?xml version="1.0" encoding="UTF-8" standalone="no"?>
<!-- Created with Inkscape (http://www.inkscape.org/) -->

<svg
   xmlns:dc="http://purl.org/dc/elements/1.1/"
   xmlns:cc="http://creativecommons.org/ns#"
   xmlns:rdf="http://www.w3.org/1999/02/22-rdf-syntax-ns#"
   xmlns:svg="http://www.w3.org/2000/svg"
   xmlns="http://www.w3.org/2000/svg"
   xmlns:sodipodi="http://sodipodi.sourceforge.net/DTD/sodipodi-0.dtd"
   xmlns:inkscape="http://www.inkscape.org/namespaces/inkscape"
   width="384"
   height="384"
   viewBox="0 0 384 384"
   version="1.1"
   id="svg8"
   inkscape:version="0.92.3 (2405546, 2018-03-11)"
   sodipodi:docname="car.svg">
  <defs
     id="defs2" />
  <sodipodi:namedview
     id="base"
     pagecolor="#ffffff"
     bordercolor="#666666"
     borderopacity="1.0"
     inkscape:pageopacity="0.0"
     inkscape:pageshadow="2"
     inkscape:zoom="2"
     inkscape:cx="282.15073"
     inkscape:cy="225.696"
     inkscape:document-units="px"
     inkscape:current-layer="svg8"
     showgrid="true"
     units="px"
     inkscape:showpageshadow="false"
     objecttolerance="10000"
     guidetolerance="10000"
     inkscape:window-width="1920"
     inkscape:window-height="1027"
     inkscape:window-x="-8"
     inkscape:window-y="-8"
     inkscape:window-maximized="1"
     showguides="true">
    <inkscape:grid
       type="xygrid"
       id="grid815"
       empspacing="24"
       enabled="true" />
  </sodipodi:namedview>
  <metadata
     id="metadata5">
    <rdf:RDF>
      <cc:Work
         rdf:about="">
        <dc:format>image/svg+xml</dc:format>
        <dc:type
           rdf:resource="http://purl.org/dc/dcmitype/StillImage" />
        <dc:title />
      </cc:Work>
    </rdf:RDF>
  </metadata>
  <path
     style="opacity:1;fill:#000000;fill-opacity:1;fill-rule:evenodd;stroke:none;stroke-width:2.66666675;stroke-linecap:round;stroke-linejoin:round;stroke-miterlimit:4;stroke-dasharray:none;stroke-opacity:1"
     d="M 72 72 L 48 192 L 24 192 L 24 288 L 48 288 L 48 336 L 72 336 L 85 336 L 85 288 L 299 288 L 299 336 L 312 336 L 336 336 L 336 288 L 360 288 L 360 192 L 336 192 L 312 72 L 72 72 z M 80.017578 80 L 304.18359 80 L 321.79688 168 L 311.9043 168 A 60 60 0 0 0 264 144 A 60 60 0 0 0 216.13672 168 L 62.404297 168 L 80.017578 80 z M 264 156 A 48 48 0 0 1 295.65234 168 L 232.32617 168 A 48 48 0 0 1 264 156 z M 72 216 A 24 24 0 0 1 96 240 A 24 24 0 0 1 72 264 A 24 24 0 0 1 48 240 A 24 24 0 0 1 72 216 z M 312 216 A 24 24 0 0 1 336 240 A 24 24 0 0 1 312 264 A 24 24 0 0 1 288 240 A 24 24 0 0 1 312 216 z "
     id="rect4760" />
</svg>
