<?xml version="1.0" encoding="UTF-8" standalone="no"?>
<!-- Created with Inkscape (http://www.inkscape.org/) -->

<svg
   xmlns:dc="http://purl.org/dc/elements/1.1/"
   xmlns:cc="http://creativecommons.org/ns#"
   xmlns:rdf="http://www.w3.org/1999/02/22-rdf-syntax-ns#"
   xmlns:svg="http://www.w3.org/2000/svg"
   xmlns="http://www.w3.org/2000/svg"
   xmlns:sodipodi="http://sodipodi.sourceforge.net/DTD/sodipodi-0.dtd"
   xmlns:inkscape="http://www.inkscape.org/namespaces/inkscape"
   width="384"
   height="384"
   viewBox="0 0 384 384"
   version="1.1"
   id="svg8"
   inkscape:version="0.92.4 (5da689c313, 2019-01-14)"
   sodipodi:docname="refresh-3.svg">
  <defs
     id="defs2" />
  <sodipodi:namedview
     id="base"
     pagecolor="#ffffff"
     bordercolor="#666666"
     borderopacity="1.0"
     inkscape:pageopacity="0.0"
     inkscape:pageshadow="2"
     inkscape:zoom="0.95190856"
     inkscape:cx="193.29323"
     inkscape:cy="188.37814"
     inkscape:document-units="px"
     inkscape:current-layer="svg8"
     showgrid="true"
     units="px"
     inkscape:showpageshadow="false"
     objecttolerance="10000"
     guidetolerance="10000"
     inkscape:window-width="1366"
     inkscape:window-height="715"
     inkscape:window-x="-8"
     inkscape:window-y="-8"
     inkscape:window-maximized="1"
     showguides="true"
     inkscape:snap-to-guides="true"
     inkscape:snap-grids="true">
    <inkscape:grid
       type="xygrid"
       id="grid815"
       empspacing="24"
       enabled="true" />
  </sodipodi:namedview>
  <metadata
     id="metadata5">
    <rdf:RDF>
      <cc:Work
         rdf:about="">
        <dc:format>image/svg+xml</dc:format>
        <dc:type
           rdf:resource="http://purl.org/dc/dcmitype/StillImage" />
        <dc:title></dc:title>
      </cc:Work>
    </rdf:RDF>
  </metadata>
  <path
     id="path891"
     style="opacity:0.98000004;fill:#000000;fill-opacity:1;stroke-width:24;stroke-linecap:butt;stroke-linejoin:miter;stroke-miterlimit:4;stroke-dasharray:none"
     d="M 56.235498,327.7645 A 192,192 0 0 1 0.96239777,208.97056 H 49.274912 a 144,144 0 0 0 40.901712,84.85281 144,144 0 0 0 203.646756,0 l 33.94112,33.94113 a 192,192 0 0 1 -271.529002,0 z m -33.941125,-203.64675 -0.0511,-50.860592 -0.0511,-50.86059 50.911689,50.91169 50.911688,50.911692 -50.860593,-0.0511 z m 144.249787,93.33809 a 36,36 0 0 1 0,-50.91168 36,36 0 0 1 50.91168,0 36,36 0 0 1 0,50.91168 36,36 0 0 1 -50.91168,0 z M 56.235498,56.235498 a 192,192 0 0 1 271.529002,0 192,192 0 0 1 55.2731,118.793942 h -48.31251 a 144,144 0 0 0 -40.90171,-84.852822 144,144 0 0 0 -203.646756,0 z m 203.748952,203.544552 50.86059,0.0511 50.86059,0.0511 0.0511,50.86059 0.0511,50.86059 -50.91169,-50.91169 z" />
</svg>
