<?xml version="1.0" encoding="UTF-8" standalone="no"?>
<!-- Created with Inkscape (http://www.inkscape.org/) -->

<svg
   xmlns:dc="http://purl.org/dc/elements/1.1/"
   xmlns:cc="http://creativecommons.org/ns#"
   xmlns:rdf="http://www.w3.org/1999/02/22-rdf-syntax-ns#"
   xmlns:svg="http://www.w3.org/2000/svg"
   xmlns="http://www.w3.org/2000/svg"
   xmlns:sodipodi="http://sodipodi.sourceforge.net/DTD/sodipodi-0.dtd"
   xmlns:inkscape="http://www.inkscape.org/namespaces/inkscape"
   width="384"
   height="384"
   viewBox="0 0 384 384"
   version="1.1"
   id="svg8"
   inkscape:version="0.92.4 (5da689c313, 2019-01-14)"
   sodipodi:docname="tedit.svg">
  <defs
     id="defs2" />
  <sodipodi:namedview
     id="base"
     pagecolor="#ffffff"
     bordercolor="#666666"
     borderopacity="1.0"
     inkscape:pageopacity="0.0"
     inkscape:pageshadow="2"
     inkscape:zoom="0.95190856"
     inkscape:cx="276.58856"
     inkscape:cy="148.63425"
     inkscape:document-units="px"
     inkscape:current-layer="svg8"
     showgrid="true"
     units="px"
     inkscape:showpageshadow="false"
     objecttolerance="10000"
     guidetolerance="10000"
     inkscape:window-width="1366"
     inkscape:window-height="715"
     inkscape:window-x="-8"
     inkscape:window-y="-8"
     inkscape:window-maximized="1"
     showguides="true"
     inkscape:snap-grids="true"
     inkscape:snap-midpoints="true"
     inkscape:snap-intersection-paths="true"
     inkscape:snap-bbox="true">
    <inkscape:grid
       type="xygrid"
       id="grid815"
       empspacing="24"
       enabled="true" />
  </sodipodi:namedview>
  <metadata
     id="metadata5">
    <rdf:RDF>
      <cc:Work
         rdf:about="">
        <dc:format>image/svg+xml</dc:format>
        <dc:type
           rdf:resource="http://purl.org/dc/dcmitype/StillImage" />
        <dc:title />
      </cc:Work>
    </rdf:RDF>
  </metadata>
  <path
     style="fill:#000000;stroke-width:1.41421342"
     d="M 180 0 A 36 36 0 0 0 144 36 A 36 36 0 0 0 180 72 A 36 36 0 0 0 216 36 A 36 36 0 0 0 180 0 z M 144 96 L 144 192 L 120 192 C 106.704 192 96 198.69 96 207 L 96 237 C 96 245.31 106.704 252 120 252 L 144 252 L 144 288 A 96 96 0 0 0 240 384 A 96 96 0 0 0 335.76367 294.66211 A 36 36 0 0 0 336.45898 287.65625 A 36 36 0 0 0 300.45898 251.65625 A 36 36 0 0 0 264.45898 287.65625 A 36 36 0 0 0 264.4707 288 L 264 288 A 24 24 0 0 1 240 312 A 24 24 0 0 1 216 288 L 216 252 L 240 252 C 253.296 252 264 245.31 264 237 L 264 207 C 264 198.69 253.296 192 240 192 L 216 192 L 216 96 L 144 96 z "
     id="rect3733" />
</svg>
